Coordinates
version=1
nRows=7
nColumns=63
inDegrees=yes

Units are S.I. units (second, meters, Newtons, ...)
If the header above contains a line with 'inDegrees', this indicates whether rotational values are in degrees (yes) or radians (no).

endheader
time	pelvis_tilt	pelvis_list	pelvis_rotation	pelvis_tx	pelvis_ty	pelvis_tz	hip_flexion_r	hip_adduction_r	hip_rotation_r	knee_angle_r	knee_angle_r_beta	ankle_angle_r	subtalar_angle_r	mtp_angle_r	hip_flexion_l	hip_adduction_l	hip_rotation_l	knee_angle_l	knee_angle_l_beta	ankle_angle_l	subtalar_angle_l	mtp_angle_l	L5_S1_Flex_Ext	L5_S1_Lat_Bending	L5_S1_axial_rotation	L4_L5_Flex_Ext	L4_L5_Lat_Bending	L4_L5_axial_rotation	L3_L4_Flex_Ext	L3_L4_Lat_Bending	L3_L4_axial_rotation	L2_L3_Flex_Ext	L2_L3_Lat_Bending	L2_L3_axial_rotation	L1_L2_Flex_Ext	L1_L2_Lat_Bending	L1_L2_axial_rotation	L1_T12_Flex_Ext	L1_T12_Lat_Bending	L1_T12_axial_rotation	Abs_r3	Abs_r2	Abs_r1	Abs_t1	Abs_t2	neck_flexion	neck_bending	neck_rotation	arm_flex_r	arm_add_r	arm_rot_r	elbow_flex_r	pro_sup_r	wrist_flex_r	wrist_dev_r	arm_flex_l	arm_add_l	arm_rot_l	elbow_flex_l	pro_sup_l	wrist_flex_l	wrist_dev_l
     10.93220339	     -0.51828358	      1.13644158	     93.19504437	      0.30048669	      0.78219203	      0.59955730	    -10.97112151	      0.69783468	      6.22080328	      0.45257537	      0.00789893	     14.93977304	    -11.95458964	      0.00000000	     -7.29106669	     -3.47439829	      8.67530003	      6.27333632	      0.10949037	     24.47509029	      1.39210125	      0.00000000	      0.01673324	      0.40552754	      1.29745519	      0.03107529	      0.53935163	      1.37854614	      0.02749103	      0.98599967	      1.37854614	      0.01912442	      0.98599967	      1.13527329	      0.01553848	      0.82695177	      1.05418234	      0.00956137	      0.62816216	      0.97309139	      0.11952383	      4.58740868	      7.21605653	      0.00000000	      0.00000000	     23.43722375	     -2.78875903	      5.10049896	      8.56032258	    -17.63887464	     94.83738340	     13.70588426	      7.67504827	     -1.48575966	    -10.05903766	     15.79064183	    -17.86465392	    -70.90240048	    142.91150074	     66.41106555	     18.30022284	      8.60577985
     10.94915254	     -0.49781484	      1.36264623	     93.45517353	      0.30009126	      0.78236306	      0.59960570	    -11.21305149	      0.77647434	      6.05533980	      0.46523877	      0.00811995	     14.89272545	    -12.08359162	      0.00000000	     -7.60487844	     -3.57388848	      8.80728152	      6.06296768	      0.10581875	     24.53371159	      1.44908446	      0.00000000	      0.01487012	      0.41553959	      1.29153539	      0.02761531	      0.55266765	      1.37225635	      0.02443013	      1.01034295	      1.37225635	      0.01699506	      1.01034295	      1.13009346	      0.01380840	      0.84736832	      1.04937250	      0.00849679	      0.64367082	      0.96865154	      0.10621580	      4.70066690	      7.18313235	      0.00000000	      0.00000000	     23.27292313	     -2.83882701	      5.17333755	      8.38999238	    -17.72784493	     94.65898212	     13.66295975	      7.52253832	     -1.37677787	     -9.95881558	     14.91071570	    -18.34726297	    -69.23980022	    142.87982217	     66.73684954	     18.37985591	      8.65851810
     10.96610169	     -0.48450052	      1.71534847	     93.89523718	      0.29950937	      0.78262188	      0.59978807	    -11.60324084	      0.90281932	      5.78398279	      0.46118895	      0.00804927	     15.01017794	    -12.38927588	      0.00000000	     -8.08244795	     -3.71542508	      9.25956803	      5.76087201	      0.10054618	     24.22349341	      1.52653471	      0.00000000	      0.00442856	      0.42226563	      1.33095612	      0.00822427	      0.56161329	      1.41414088	      0.00727568	      1.02669665	      1.41414088	      0.00506140	      1.02669665	      1.16458661	      0.00411236	      0.86108407	      1.08140185	      0.00253048	      0.65408946	      0.99821709	      0.03163274	      4.77675325	      7.40237866	      0.00000000	      0.00000000	     23.00500568	     -2.75945773	      4.65567617	      8.00235922	    -17.79977965	     94.07944630	     13.56504500	      7.09978665	     -1.20841125	    -10.14504676	     14.39810559	    -18.42930218	    -66.63946586	    142.85698025	     67.14791542	     18.13471219	      8.40789201
     10.98305085	     -0.50628768	      1.88483128	     94.05453941	      0.29917805	      0.78262116	      0.59986561	    -11.78745563	      0.90890371	      5.83062644	      0.47059897	      0.00821350	     15.31317129	    -12.46376815	      0.00000000	     -8.28454965	     -3.74894161	      9.30839329	      5.75781139	      0.10049277	     23.87806755	      1.53884324	      0.00000000	      0.01342622	      0.42975829	      1.31436701	      0.02493384	      0.57157853	      1.39651495	      0.02205794	      1.04491431	      1.39651495	      0.01534483	      1.04491431	      1.15007113	      0.01246759	      0.87636311	      1.06792319	      0.00767174	      0.66569559	      0.98577526	      0.09590218	      4.86151175	      7.31011499	      0.00000000	      0.00000000	     23.20643833	     -2.81271875	      4.66427419	      7.96840746	    -17.85011092	     94.06585621	     13.54442248	      7.12285375	     -1.20198604	    -10.19278505	     13.36228313	    -18.59361285	    -65.48441447	    143.21345552	     67.32445821	     18.47280113	      8.58216078
     11.00000000	     -0.46688396	      2.27119837	     94.36930036	      0.29893664	      0.78279242	      0.59987140	    -12.20900035	      1.05853097	      5.66193185	      0.47101155	      0.00822070	     15.51594952	    -12.67466400	      0.00000000	     -8.94053347	     -3.86951430	     11.24450458	      5.26331139	      0.09186211	     22.83219665	     -0.53890088	      0.00000000	      0.00126378	      0.43190327	      1.39613427	      0.00234697	      0.57443135	      1.48339266	      0.00207627	      1.05012962	      1.48339266	      0.00144438	      1.05012962	      1.22161748	      0.00117355	      0.88073716	      1.13435909	      0.00072213	      0.66901817	      1.04710070	      0.00902708	      4.88577621	      7.76487995	      0.00000000	      0.00000000	     23.06650742	     -3.48596526	      2.79215271	      7.50707773	    -17.89353839	     93.06189075	     13.51490894	      7.24735555	     -1.11466844	    -10.83281109	     13.46630435	    -18.53204168	    -63.54945710	    143.76754410	     68.42272622	     20.02512887	     11.25123486
     11.01694915	     -0.48472839	      2.44168071	     94.74057003	      0.29854213	      0.78281305	      0.59978445	    -12.41284974	      1.13400538	      5.31030460	      0.48163224	      0.00840607	     15.73680819	    -12.58660743	      0.00000000	     -9.22521058	     -3.93623551	     12.39933441	      5.03223969	      0.08782915	     22.06564022	     -1.61149246	      0.00000000	      0.00610406	      0.43853989	      1.34544800	      0.01133586	      0.58325805	      1.42953850	      0.01002837	      1.06626588	      1.42953850	      0.00697633	      1.06626588	      1.17726700	      0.00566823	      0.89427054	      1.09317650	      0.00348786	      0.67929829	      1.00908600	      0.04360072	      4.96085093	      7.48297814	      0.00000000	      0.00000000	     23.20757741	     -2.89743123	      3.45844405	      7.44765929	    -17.90031977	     92.86459201	     13.49604222	      7.48641996	     -1.08162937	    -11.29853266	     13.24770671	    -18.45852830	    -63.57175256	    144.73222690	     70.09925629	     22.62551276	     14.89846573
     11.03389831	     -0.47388051	      2.55027172	     94.98686709	      0.29834693	      0.78280104	      0.59954454	    -12.54334605	      1.21652261	      4.73867334	      0.49847587	      0.00870005	     15.92013414	    -12.11723954	      0.00000000	     -9.49595583	     -3.99196604	     14.20733846	      4.73305025	      0.08260731	     21.20809234	     -3.70263676	      0.00000000	      0.00654210	      0.44522849	      1.28781282	      0.01214933	      0.59215389	      1.36830112	      0.01074801	      1.08252854	      1.36830112	      0.00747696	      1.08252854	      1.12683622	      0.00607499	      0.90790993	      1.04634792	      0.00373816	      0.68965892	      0.96585962	      0.04672956	      5.03651367	      7.16242858	      0.00000000	      0.00000000	     23.44108578	     -2.40859784	      4.02892332	      7.49957479	    -17.87720456	     92.68972939	     13.50359304	      7.80992293	     -1.00759657	    -11.69205642	     13.13128588	    -18.43024727	    -64.13473707	    145.92058021	     70.06352187	     25.46211338	     19.71113702
